<?xml version="1.0" encoding="UTF-8"?> <svg xmlns="http://www.w3.org/2000/svg" xmlns:xlink="http://www.w3.org/1999/xlink" width="3172" height="1292" xml:space="preserve" overflow="hidden"><defs><clipPath id="clip0"><rect x="91" y="110" width="3172" height="1292"></rect></clipPath></defs><g clip-path="url(#clip0)" transform="translate(-91 -110)"><text fill="#666666" fill-opacity="1" font-family="Arial,Arial_MSFontService,sans-serif" font-style="normal" font-variant="normal" font-weight="400" font-stretch="normal" font-size="41" text-anchor="start" direction="ltr" writing-mode="lr-tb" text-decoration="none" transform="matrix(1 0 0 1 2867.23 1365)">© Scaled Agile, Inc.</text><path d="M99 116.254 893.571 116.254 893.571 337.78 99 337.78Z" fill="#437B7E" fill-rule="evenodd" fill-opacity="1"></path><path d="M893.571 116.254 1960.81 116.254 1960.81 337.78 893.571 337.78Z" fill="#437B7E" fill-rule="evenodd" fill-opacity="1"></path><path d="M1960.81 116.254 2283.14 116.254 2283.14 337.78 1960.81 337.78Z" fill="#437B7E" fill-rule="evenodd" fill-opacity="1"></path><path d="M2283.14 116.254 2593.95 116.254 2593.95 337.78 2283.14 337.78Z" fill="#437B7E" fill-rule="evenodd" fill-opacity="1"></path><path d="M2593.95 116.254 2916.28 116.254 2916.28 337.78 2593.95 337.78Z" fill="#437B7E" fill-rule="evenodd" fill-opacity="1"></path><path d="M2916.28 116.254 3223 116.254 3223 337.78 2916.28 337.78Z" fill="#437B7E" fill-rule="evenodd" fill-opacity="1"></path><path d="M99 337.78 893.571 337.78 893.571 1287 99 1287Z" fill="#FFFFFF" fill-rule="evenodd" fill-opacity="1"></path><path d="M893.571 337.78 1960.81 337.78 1960.81 586.033 893.571 586.033Z" fill="#F2F2F2" fill-rule="evenodd" fill-opacity="1"></path><path d="M1960.81 337.78 2283.14 337.78 2283.14 586.033 1960.81 586.033Z" fill="#F2F2F2" fill-rule="evenodd" fill-opacity="1"></path><path d="M2283.14 337.78 2593.95 337.78 2593.95 586.033 2283.14 586.033Z" fill="#F2F2F2" fill-rule="evenodd" fill-opacity="1"></path><path d="M2593.95 337.78 2916.28 337.78 2916.28 586.033 2593.95 586.033Z" fill="#F2F2F2" fill-rule="evenodd" fill-opacity="1"></path><path d="M2916.28 337.78 3223 337.78 3223 586.033 2916.28 586.033Z" fill="#F2F2F2" fill-rule="evenodd" fill-opacity="1"></path><path d="M893.571 586.033 1960.81 586.033 1960.81 817.335 893.571 817.335Z" fill="#FFFFFF" fill-rule="evenodd" fill-opacity="1"></path><path d="M1960.81 586.033 2283.14 586.033 2283.14 817.335 1960.81 817.335Z" fill="#FFFFFF" fill-rule="evenodd" fill-opacity="1"></path><path d="M2283.14 586.033 2593.95 586.033 2593.95 817.335 2283.14 817.335Z" fill="#FFFFFF" fill-rule="evenodd" fill-opacity="1"></path><path d="M2593.95 586.033 2916.28 586.033 2916.28 817.335 2593.95 817.335Z" fill="#FFFFFF" fill-rule="evenodd" fill-opacity="1"></path><path d="M2916.28 586.033 3223 586.033 3223 817.335 2916.28 817.335Z" fill="#FFFFFF" fill-rule="evenodd" fill-opacity="1"></path><path d="M893.571 817.335 1960.81 817.335 1960.81 1038.75 893.571 1038.75Z" fill="#F2F2F2" fill-rule="evenodd" fill-opacity="1"></path><path d="M1960.81 817.335 2283.14 817.335 2283.14 1038.75 1960.81 1038.75Z" fill="#F2F2F2" fill-rule="evenodd" fill-opacity="1"></path><path d="M2283.14 817.335 2593.95 817.335 2593.95 1038.75 2283.14 1038.75Z" fill="#F2F2F2" fill-rule="evenodd" fill-opacity="1"></path><path d="M2593.95 817.335 2916.28 817.335 2916.28 1038.75 2593.95 1038.75Z" fill="#F2F2F2" fill-rule="evenodd" fill-opacity="1"></path><path d="M2916.28 817.335 3223 817.335 3223 1038.75 2916.28 1038.75Z" fill="#F2F2F2" fill-rule="evenodd" fill-opacity="1"></path><path d="M893.571 1038.75 1960.81 1038.75 1960.81 1287 893.571 1287Z" fill="#FFFFFF" fill-rule="evenodd" fill-opacity="1"></path><path d="M1960.81 1038.75 2283.14 1038.75 2283.14 1287 1960.81 1287Z" fill="#FFFFFF" fill-rule="evenodd" fill-opacity="1"></path><path d="M2283.14 1038.75 2593.95 1038.75 2593.95 1287 2283.14 1287Z" fill="#FFFFFF" fill-rule="evenodd" fill-opacity="1"></path><path d="M2593.95 1038.75 2916.28 1038.75 2916.28 1287 2593.95 1287Z" fill="#FFFFFF" fill-rule="evenodd" fill-opacity="1"></path><path d="M2916.28 1038.75 3223 1038.75 3223 1287 2916.28 1287Z" fill="#FFFFFF" fill-rule="evenodd" fill-opacity="1"></path><path d="M893.571 113.962 893.571 337.78" stroke="#8EA6A9" stroke-width="4.58333" stroke-linecap="butt" stroke-linejoin="round" stroke-miterlimit="10" stroke-opacity="1" fill="none" fill-rule="evenodd"></path><path d="M893.571 337.78 893.571 1289.29" stroke="#437B7E" stroke-width="4.58333" stroke-linecap="butt" stroke-linejoin="round" stroke-miterlimit="10" stroke-opacity="1" fill="none" fill-rule="evenodd"></path><path d="M1960.81 113.962 1960.81 337.78" stroke="#8EA6A9" stroke-width="4.58333" stroke-linecap="butt" stroke-linejoin="round" stroke-miterlimit="10" stroke-opacity="1" fill="none" fill-rule="evenodd"></path><path d="M1960.81 337.78 1960.81 1289.29" stroke="#437B7E" stroke-width="4.58333" stroke-linecap="butt" stroke-linejoin="round" stroke-miterlimit="10" stroke-opacity="1" fill="none" fill-rule="evenodd"></path><path d="M2283.14 113.962 2283.14 337.78" stroke="#8EA6A9" stroke-width="4.58333" stroke-linecap="butt" stroke-linejoin="round" stroke-miterlimit="10" stroke-opacity="1" fill="none" fill-rule="evenodd"></path><path d="M2283.14 337.78 2283.14 1289.29" stroke="#437B7E" stroke-width="4.58333" stroke-linecap="butt" stroke-linejoin="round" stroke-miterlimit="10" stroke-opacity="1" fill="none" fill-rule="evenodd"></path><path d="M2593.95 113.962 2593.95 337.78" stroke="#8EA6A9" stroke-width="4.58333" stroke-linecap="butt" stroke-linejoin="round" stroke-miterlimit="10" stroke-opacity="1" fill="none" fill-rule="evenodd"></path><path d="M2593.95 337.78 2593.95 1289.29" stroke="#437B7E" stroke-width="4.58333" stroke-linecap="butt" stroke-linejoin="round" stroke-miterlimit="10" stroke-opacity="1" fill="none" fill-rule="evenodd"></path><path d="M2916.28 113.962 2916.28 337.78" stroke="#8EA6A9" stroke-width="4.58333" stroke-linecap="butt" stroke-linejoin="round" stroke-miterlimit="10" stroke-opacity="1" fill="none" fill-rule="evenodd"></path><path d="M2916.28 337.78 2916.28 1289.29" stroke="#437B7E" stroke-width="4.58333" stroke-linecap="butt" stroke-linejoin="round" stroke-miterlimit="10" stroke-opacity="1" fill="none" fill-rule="evenodd"></path><path d="M96.7083 337.78 3225.29 337.78" stroke="#437B7E" stroke-width="4.58333" stroke-linecap="butt" stroke-linejoin="round" stroke-miterlimit="10" stroke-opacity="1" fill="none" fill-rule="evenodd"></path><path d="M891.279 586.033 3225.29 586.033" stroke="#437B7E" stroke-width="4.58333" stroke-linecap="butt" stroke-linejoin="round" stroke-miterlimit="10" stroke-opacity="1" fill="none" fill-rule="evenodd"></path><path d="M891.279 817.335 3225.29 817.335" stroke="#437B7E" stroke-width="4.58333" stroke-linecap="butt" stroke-linejoin="round" stroke-miterlimit="10" stroke-opacity="1" fill="none" fill-rule="evenodd"></path><path d="M891.279 1038.75 3225.29 1038.75" stroke="#437B7E" stroke-width="4.58333" stroke-linecap="butt" stroke-linejoin="round" stroke-miterlimit="10" stroke-opacity="1" fill="none" fill-rule="evenodd"></path><path d="M99 113.962 99 1289.29" stroke="#437B7E" stroke-width="4.58333" stroke-linecap="butt" stroke-linejoin="round" stroke-miterlimit="10" stroke-opacity="1" fill="none" fill-rule="evenodd"></path><path d="M3223 113.962 3223 1289.29" stroke="#437B7E" stroke-width="4.58333" stroke-linecap="butt" stroke-linejoin="round" stroke-miterlimit="10" stroke-opacity="1" fill="none" fill-rule="evenodd"></path><path d="M96.7083 116.254 3225.29 116.254" stroke="#437B7E" stroke-width="4.58333" stroke-linecap="butt" stroke-linejoin="round" stroke-miterlimit="10" stroke-opacity="1" fill="none" fill-rule="evenodd"></path><path d="M96.7083 1287 3225.29 1287" stroke="#437B7E" stroke-width="4.58333" stroke-linecap="butt" stroke-linejoin="round" stroke-miterlimit="10" stroke-opacity="1" fill="none" fill-rule="evenodd"></path><text fill="#FFFFFF" fill-opacity="1" font-family="Arial,Arial_MSFontService,sans-serif" font-style="normal" font-variant="normal" font-weight="700" font-stretch="normal" font-size="73" text-anchor="start" direction="ltr" writing-mode="lr-tb" text-decoration="none" transform="matrix(1 0 0 1 330.999 254)">Objective<tspan fill="#FFFFFF" fill-opacity="1" font-family="Arial,Arial_MSFontService,sans-serif" font-style="normal" font-variant="normal" font-weight="700" font-stretch="normal" font-size="73" text-anchor="start" direction="ltr" writing-mode="lr-tb" text-decoration="none" x="886.506" y="0">Key Results</tspan><tspan fill="#FFFFFF" fill-opacity="1" font-family="Arial,Arial_MSFontService,sans-serif" font-style="normal" font-variant="normal" font-weight="700" font-stretch="normal" font-size="73" text-anchor="start" direction="ltr" writing-mode="lr-tb" text-decoration="none" x="1741.99" y="0">Q1</tspan><tspan fill="#FFFFFF" fill-opacity="1" font-family="Arial,Arial_MSFontService,sans-serif" font-style="normal" font-variant="normal" font-weight="700" font-stretch="normal" font-size="73" text-anchor="start" direction="ltr" writing-mode="lr-tb" text-decoration="none" x="2058.56" y="0">Q2</tspan><tspan fill="#FFFFFF" fill-opacity="1" font-family="Arial,Arial_MSFontService,sans-serif" font-style="normal" font-variant="normal" font-weight="700" font-stretch="normal" font-size="73" text-anchor="start" direction="ltr" writing-mode="lr-tb" text-decoration="none" x="2375.13" y="0">Q3</tspan><tspan fill="#FFFFFF" fill-opacity="1" font-family="Arial,Arial_MSFontService,sans-serif" font-style="normal" font-variant="normal" font-weight="700" font-stretch="normal" font-size="73" text-anchor="start" direction="ltr" writing-mode="lr-tb" text-decoration="none" x="2689.66" y="0">Q4</tspan><tspan fill="#565656" fill-opacity="1" font-family="Arial,Arial_MSFontService,sans-serif" font-style="normal" font-variant="normal" font-weight="400" font-stretch="normal" font-size="64" text-anchor="start" direction="ltr" writing-mode="lr-tb" text-decoration="none" x="-165.999" y="466">Achieve a dominant </tspan><tspan fill="#565656" fill-opacity="1" font-family="Arial,Arial_MSFontService,sans-serif" font-style="normal" font-variant="normal" font-weight="400" font-stretch="normal" font-size="64" text-anchor="start" direction="ltr" writing-mode="lr-tb" text-decoration="none" x="-165.999" y="543">position within </tspan><tspan fill="#565656" fill-opacity="1" font-family="Arial,Arial_MSFontService,sans-serif" font-style="normal" font-variant="normal" font-weight="400" font-stretch="normal" font-size="64" text-anchor="start" direction="ltr" writing-mode="lr-tb" text-decoration="none" x="-165.999" y="620">the autonomous </tspan><tspan fill="#565656" fill-opacity="1" font-family="Arial,Arial_MSFontService,sans-serif" font-style="normal" font-variant="normal" font-weight="400" font-stretch="normal" font-size="64" text-anchor="start" direction="ltr" writing-mode="lr-tb" text-decoration="none" x="-165.999" y="697">delivery market</tspan><tspan fill="#565656" fill-opacity="1" font-family="Arial,Arial_MSFontService,sans-serif" font-style="normal" font-variant="normal" font-weight="400" font-stretch="normal" font-size="60" text-anchor="start" direction="ltr" writing-mode="lr-tb" text-decoration="none" x="628.572" y="194">Increase </tspan><tspan fill="#565656" fill-opacity="1" font-family="Arial,Arial_MSFontService,sans-serif" font-style="normal" font-variant="normal" font-weight="400" font-stretch="normal" font-size="60" text-anchor="start" direction="ltr" writing-mode="lr-tb" text-decoration="none" x="874.353" y="194">serviceable market</tspan><tspan fill="#565656" fill-opacity="1" font-family="Arial,Arial_MSFontService,sans-serif" font-style="normal" font-variant="normal" font-weight="400" font-stretch="normal" font-size="60" text-anchor="start" direction="ltr" writing-mode="lr-tb" text-decoration="none" x="1392.27" y="194">to </tspan><tspan fill="#565656" fill-opacity="1" font-family="Arial,Arial_MSFontService,sans-serif" font-style="normal" font-variant="normal" font-weight="400" font-stretch="normal" font-size="60" text-anchor="start" direction="ltr" writing-mode="lr-tb" text-decoration="none" x="628.572" y="265">75% within 18 months</tspan><tspan fill="#565656" fill-opacity="1" font-family="Arial,Arial_MSFontService,sans-serif" font-style="normal" font-variant="normal" font-weight="400" font-stretch="normal" font-size="60" text-anchor="start" direction="ltr" writing-mode="lr-tb" text-decoration="none" x="1731.39" y="230">45%</tspan><tspan fill="#565656" fill-opacity="1" font-family="Arial,Arial_MSFontService,sans-serif" font-style="normal" font-variant="normal" font-weight="400" font-stretch="normal" font-size="60" text-anchor="start" direction="ltr" writing-mode="lr-tb" text-decoration="none" x="2064.46" y="230">55%</tspan><tspan fill="#565656" fill-opacity="1" font-family="Arial,Arial_MSFontService,sans-serif" font-style="normal" font-variant="normal" font-weight="400" font-stretch="normal" font-size="60" text-anchor="start" direction="ltr" writing-mode="lr-tb" text-decoration="none" x="2381.03" y="230">47%</tspan><tspan fill="#565656" fill-opacity="1" font-family="Arial,Arial_MSFontService,sans-serif" font-style="normal" font-variant="normal" font-weight="400" font-stretch="normal" font-size="60" text-anchor="start" direction="ltr" writing-mode="lr-tb" text-decoration="none" x="2695.56" y="230">52%</tspan><tspan fill="#565656" fill-opacity="1" font-family="Arial,Arial_MSFontService,sans-serif" font-style="normal" font-variant="normal" font-weight="400" font-stretch="normal" font-size="60" text-anchor="start" direction="ltr" writing-mode="lr-tb" text-decoration="none" x="628.572" y="434">Increase Net Promoter score from </tspan><tspan fill="#565656" fill-opacity="1" font-family="Arial,Arial_MSFontService,sans-serif" font-style="normal" font-variant="normal" font-weight="400" font-stretch="normal" font-size="60" text-anchor="start" direction="ltr" writing-mode="lr-tb" text-decoration="none" x="628.572" y="505">35 to 60</tspan><tspan fill="#565656" fill-opacity="1" font-family="Arial,Arial_MSFontService,sans-serif" font-style="normal" font-variant="normal" font-weight="400" font-stretch="normal" font-size="60" text-anchor="start" direction="ltr" writing-mode="lr-tb" text-decoration="none" x="1757.75" y="470">35</tspan><tspan fill="#565656" fill-opacity="1" font-family="Arial,Arial_MSFontService,sans-serif" font-style="normal" font-variant="normal" font-weight="400" font-stretch="normal" font-size="60" text-anchor="start" direction="ltr" writing-mode="lr-tb" text-decoration="none" x="2074.32" y="470">49</tspan><tspan fill="#565656" fill-opacity="1" font-family="Arial,Arial_MSFontService,sans-serif" font-style="normal" font-variant="normal" font-weight="400" font-stretch="normal" font-size="60" text-anchor="start" direction="ltr" writing-mode="lr-tb" text-decoration="none" x="2390.89" y="470">54</tspan><tspan fill="#565656" fill-opacity="1" font-family="Arial,Arial_MSFontService,sans-serif" font-style="normal" font-variant="normal" font-weight="400" font-stretch="normal" font-size="60" text-anchor="start" direction="ltr" writing-mode="lr-tb" text-decoration="none" x="2705.41" y="470">57</tspan><tspan fill="#565656" fill-opacity="1" font-family="Arial,Arial_MSFontService,sans-serif" font-style="normal" font-variant="normal" font-weight="400" font-stretch="normal" font-size="60" text-anchor="start" direction="ltr" writing-mode="lr-tb" text-decoration="none" x="628.572" y="661">Improve repeat business rates </tspan><tspan fill="#565656" fill-opacity="1" font-family="Arial,Arial_MSFontService,sans-serif" font-style="normal" font-variant="normal" font-weight="400" font-stretch="normal" font-size="60" text-anchor="start" direction="ltr" writing-mode="lr-tb" text-decoration="none" x="628.572" y="732">from 60% to 80%</tspan><tspan fill="#565656" fill-opacity="1" font-family="Arial,Arial_MSFontService,sans-serif" font-style="normal" font-variant="normal" font-weight="400" font-stretch="normal" font-size="60" text-anchor="start" direction="ltr" writing-mode="lr-tb" text-decoration="none" x="1731.39" y="696">60%</tspan><tspan fill="#565656" fill-opacity="1" font-family="Arial,Arial_MSFontService,sans-serif" font-style="normal" font-variant="normal" font-weight="400" font-stretch="normal" font-size="60" text-anchor="start" direction="ltr" writing-mode="lr-tb" text-decoration="none" x="2072.71" y="696">64%</tspan><tspan fill="#565656" fill-opacity="1" font-family="Arial,Arial_MSFontService,sans-serif" font-style="normal" font-variant="normal" font-weight="400" font-stretch="normal" font-size="60" text-anchor="start" direction="ltr" writing-mode="lr-tb" text-decoration="none" x="2381.03" y="696">67%</tspan><tspan fill="#565656" fill-opacity="1" font-family="Arial,Arial_MSFontService,sans-serif" font-style="normal" font-variant="normal" font-weight="400" font-stretch="normal" font-size="60" text-anchor="start" direction="ltr" writing-mode="lr-tb" text-decoration="none" x="2695.56" y="696">72%</tspan><tspan fill="#565656" fill-opacity="1" font-family="Arial,Arial_MSFontService,sans-serif" font-style="normal" font-variant="normal" font-weight="400" font-stretch="normal" font-size="60" text-anchor="start" direction="ltr" writing-mode="lr-tb" text-decoration="none" x="628.572" y="895">Acquire 15% new customers over </tspan><tspan fill="#565656" fill-opacity="1" font-family="Arial,Arial_MSFontService,sans-serif" font-style="normal" font-variant="normal" font-weight="400" font-stretch="normal" font-size="60" text-anchor="start" direction="ltr" writing-mode="lr-tb" text-decoration="none" x="628.572" y="966">the next 12 months</tspan><tspan fill="#565656" fill-opacity="1" font-family="Arial,Arial_MSFontService,sans-serif" font-style="normal" font-variant="normal" font-weight="400" font-stretch="normal" font-size="60" text-anchor="start" direction="ltr" writing-mode="lr-tb" text-decoration="none" x="1748.01" y="931">2%</tspan><tspan fill="#565656" fill-opacity="1" font-family="Arial,Arial_MSFontService,sans-serif" font-style="normal" font-variant="normal" font-weight="400" font-stretch="normal" font-size="60" text-anchor="start" direction="ltr" writing-mode="lr-tb" text-decoration="none" x="2081.08" y="931">7%</tspan><tspan fill="#565656" fill-opacity="1" font-family="Arial,Arial_MSFontService,sans-serif" font-style="normal" font-variant="normal" font-weight="400" font-stretch="normal" font-size="60" text-anchor="start" direction="ltr" writing-mode="lr-tb" text-decoration="none" x="2397.65" y="931">4%</tspan><tspan fill="#565656" fill-opacity="1" font-family="Arial,Arial_MSFontService,sans-serif" font-style="normal" font-variant="normal" font-weight="400" font-stretch="normal" font-size="60" text-anchor="start" direction="ltr" writing-mode="lr-tb" text-decoration="none" x="2695.56" y="931">10%</tspan></text><path d="M2332.78 495 2332.78 449.5 2313 449.5 2348.5 414 2384 449.5 2364.22 449.5 2364.22 495Z" fill="#B0C345" fill-rule="evenodd" fill-opacity="1"></path><path d="M2676.22 422 2676.22 466.5 2696 466.5 2660.5 502 2625 466.5 2644.78 466.5 2644.78 422Z" fill="#D4AB4E" fill-rule="evenodd" fill-opacity="1"></path><path d="M2962.78 498 2962.78 453.5 2943 453.5 2978.5 418 3014 453.5 2994.22 453.5 2994.22 498Z" fill="#B0C345" fill-rule="evenodd" fill-opacity="1"></path><path d="M2332.78 742 2332.78 697.5 2313 697.5 2348.5 662 2384 697.5 2364.22 697.5 2364.22 742Z" fill="#B0C345" fill-rule="evenodd" fill-opacity="1"></path><path d="M2644.78 742 2644.78 697.5 2625 697.5 2660.5 662 2696 697.5 2676.22 697.5 2676.22 742Z" fill="#B0C345" fill-rule="evenodd" fill-opacity="1"></path><path d="M2964.5 742 2964.5 697 2945 697 2980 662 3015 697 2995.5 697 2995.5 742Z" fill="#B0C345" fill-rule="evenodd" fill-opacity="1"></path><path d="M2332.78 968 2332.78 923.5 2313 923.5 2348.5 888 2384 923.5 2364.22 923.5 2364.22 968Z" fill="#B0C345" fill-rule="evenodd" fill-opacity="1"></path><path d="M2644.78 968 2644.78 923.5 2625 923.5 2660.5 888 2696 923.5 2676.22 923.5 2676.22 968Z" fill="#B0C345" fill-rule="evenodd" fill-opacity="1"></path><path d="M2964.5 968 2964.5 923 2945 923 2980 888 3015 923 2995.5 923 2995.5 968Z" fill="#B0C345" fill-rule="evenodd" fill-opacity="1"></path><path d="M2332.78 1200 2332.78 1154.5 2313 1154.5 2348.5 1119 2384 1154.5 2364.22 1154.5 2364.22 1200Z" fill="#B0C345" fill-rule="evenodd" fill-opacity="1"></path><path d="M2676.22 1123 2676.22 1167.5 2696 1167.5 2660.5 1203 2625 1167.5 2644.78 1167.5 2644.78 1123Z" fill="#D4AB4E" fill-rule="evenodd" fill-opacity="1"></path><path d="M2962.78 1203 2962.78 1158.5 2943 1158.5 2978.5 1123 3014 1158.5 2994.22 1158.5 2994.22 1203Z" fill="#B0C345" fill-rule="evenodd" fill-opacity="1"></path></g></svg> 