<?xml version="1.0" encoding="UTF-8"?> <svg xmlns="http://www.w3.org/2000/svg" xmlns:xlink="http://www.w3.org/1999/xlink" width="2897" height="1416" xml:space="preserve" overflow="hidden"><defs><linearGradient x1="910" y1="596" x2="741" y2="596" gradientUnits="userSpaceOnUse" spreadMethod="reflect" id="fill0"><stop offset="0" stop-color="#437B7E" stop-opacity="1"></stop><stop offset="0.00392157" stop-color="#447B7E" stop-opacity="0.996078"></stop><stop offset="0.00784314" stop-color="#457C7F" stop-opacity="0.992157"></stop><stop offset="0.0117647" stop-color="#477D80" stop-opacity="0.988235"></stop><stop offset="0.0156863" stop-color="#487E81" stop-opacity="0.984314"></stop><stop offset="0.0196078" stop-color="#497F82" stop-opacity="0.980392"></stop><stop offset="0.0235294" stop-color="#4B8083" stop-opacity="0.976471"></stop><stop offset="0.027451" stop-color="#4C8184" stop-opacity="0.972549"></stop><stop offset="0.0313726" stop-color="#4D8285" stop-opacity="0.968627"></stop><stop offset="0.0352941" stop-color="#4F8386" stop-opacity="0.964706"></stop><stop offset="0.0392157" stop-color="#508487" stop-opacity="0.960784"></stop><stop offset="0.0431373" stop-color="#518588" stop-opacity="0.956863"></stop><stop offset="0.0470588" stop-color="#538689" stop-opacity="0.952941"></stop><stop offset="0.0509804" stop-color="#54878A" stop-opacity="0.94902"></stop><stop offset="0.054902" stop-color="#55888A" stop-opacity="0.945098"></stop><stop offset="0.0588235" stop-color="#57898B" stop-opacity="0.941176"></stop><stop offset="0.0627451" stop-color="#588A8C" stop-opacity="0.937255"></stop><stop offset="0.0666667" stop-color="#598B8D" stop-opacity="0.933333"></stop><stop offset="0.0705882" stop-color="#5B8B8E" stop-opacity="0.929412"></stop><stop offset="0.0745098" stop-color="#5C8C8F" stop-opacity="0.92549"></stop><stop offset="0.0784314" stop-color="#5D8D90" stop-opacity="0.921569"></stop><stop offset="0.0823529" stop-color="#5E8E91" stop-opacity="0.917647"></stop><stop offset="0.0862745" stop-color="#608F92" stop-opacity="0.913725"></stop><stop offset="0.0901961" stop-color="#619092" stop-opacity="0.909804"></stop><stop offset="0.0941176" stop-color="#629193" stop-opacity="0.905882"></stop><stop offset="0.0980392" stop-color="#649294" stop-opacity="0.901961"></stop><stop offset="0.101961" stop-color="#659395" stop-opacity="0.898039"></stop><stop offset="0.105882" stop-color="#669396" stop-opacity="0.894118"></stop><stop offset="0.109804" stop-color="#679497" stop-opacity="0.890196"></stop><stop offset="0.113725" stop-color="#699598" stop-opacity="0.886275"></stop><stop offset="0.117647" stop-color="#6A9698" stop-opacity="0.882353"></stop><stop offset="0.121569" stop-color="#6B9799" stop-opacity="0.878431"></stop><stop offset="0.12549" stop-color="#6C989A" stop-opacity="0.87451"></stop><stop offset="0.129412" stop-color="#6E999B" stop-opacity="0.870588"></stop><stop offset="0.133333" stop-color="#6F9A9C" stop-opacity="0.866667"></stop><stop offset="0.137255" stop-color="#709A9D" stop-opacity="0.862745"></stop><stop offset="0.141176" stop-color="#719B9E" stop-opacity="0.858824"></stop><stop offset="0.145098" stop-color="#729C9E" stop-opacity="0.854902"></stop><stop offset="0.14902" stop-color="#749D9F" stop-opacity="0.85098"></stop><stop offset="0.152941" stop-color="#759EA0" stop-opacity="0.847059"></stop><stop offset="0.156863" stop-color="#769FA1" stop-opacity="0.843137"></stop><stop offset="0.160784" stop-color="#779FA2" stop-opacity="0.839216"></stop><stop offset="0.164706" stop-color="#78A0A2" stop-opacity="0.835294"></stop><stop offset="0.168627" stop-color="#7AA1A3" stop-opacity="0.831373"></stop><stop offset="0.172549" stop-color="#7BA2A4" stop-opacity="0.827451"></stop><stop offset="0.176471" stop-color="#7CA3A5" stop-opacity="0.823529"></stop><stop offset="0.180392" stop-color="#7DA4A6" stop-opacity="0.819608"></stop><stop offset="0.184314" stop-color="#7EA4A6" stop-opacity="0.815686"></stop><stop offset="0.188235" stop-color="#7FA5A7" stop-opacity="0.811765"></stop><stop offset="0.192157" stop-color="#80A6A8" stop-opacity="0.807843"></stop><stop offset="0.196078" stop-color="#82A7A9" stop-opacity="0.803922"></stop><stop offset="0.2" stop-color="#83A8AA" stop-opacity="0.8"></stop><stop offset="0.203922" stop-color="#84A8AA" stop-opacity="0.796078"></stop><stop offset="0.207843" stop-color="#85A9AB" stop-opacity="0.792157"></stop><stop offset="0.211765" stop-color="#86AAAC" stop-opacity="0.788235"></stop><stop offset="0.215686" stop-color="#87ABAD" stop-opacity="0.784314"></stop><stop offset="0.219608" stop-color="#88ACAD" stop-opacity="0.780392"></stop><stop offset="0.223529" stop-color="#8AACAE" stop-opacity="0.776471"></stop><stop offset="0.227451" stop-color="#8BADAF" stop-opacity="0.772549"></stop><stop offset="0.231373" stop-color="#8CAEB0" stop-opacity="0.768627"></stop><stop offset="0.235294" stop-color="#8DAFB0" stop-opacity="0.764706"></stop><stop offset="0.239216" stop-color="#8EAFB1" stop-opacity="0.760784"></stop><stop offset="0.243137" stop-color="#8FB0B2" stop-opacity="0.756863"></stop><stop offset="0.247059" stop-color="#90B1B3" stop-opacity="0.752941"></stop><stop offset="0.25098" stop-color="#91B2B3" stop-opacity="0.74902"></stop><stop offset="0.254902" stop-color="#92B2B4" stop-opacity="0.745098"></stop><stop offset="0.258824" stop-color="#93B3B5" stop-opacity="0.741176"></stop><stop offset="0.262745" stop-color="#94B4B6" stop-opacity="0.737255"></stop><stop offset="0.266667" stop-color="#95B5B6" stop-opacity="0.733333"></stop><stop offset="0.270588" stop-color="#96B5B7" stop-opacity="0.729412"></stop><stop offset="0.27451" stop-color="#97B6B8" stop-opacity="0.72549"></stop><stop offset="0.278431" stop-color="#99B7B9" stop-opacity="0.721569"></stop><stop offset="0.282353" stop-color="#9AB8B9" stop-opacity="0.717647"></stop><stop offset="0.286275" stop-color="#9BB8BA" stop-opacity="0.713725"></stop><stop offset="0.290196" stop-color="#9CB9BB" stop-opacity="0.709804"></stop><stop offset="0.294118" stop-color="#9DBABB" stop-opacity="0.705882"></stop><stop offset="0.298039" stop-color="#9EBBBC" stop-opacity="0.701961"></stop><stop offset="0.301961" stop-color="#9FBBBD" stop-opacity="0.698039"></stop><stop offset="0.305882" stop-color="#A0BCBD" stop-opacity="0.694118"></stop><stop offset="0.309804" stop-color="#A1BDBE" stop-opacity="0.690196"></stop><stop offset="0.313726" stop-color="#A2BDBF" stop-opacity="0.686275"></stop><stop offset="0.317647" stop-color="#A3BEBF" stop-opacity="0.682353"></stop><stop offset="0.321569" stop-color="#A4BFC0" stop-opacity="0.678431"></stop><stop offset="0.32549" stop-color="#A5BFC1" stop-opacity="0.67451"></stop><stop offset="0.329412" stop-color="#A6C0C2" stop-opacity="0.670588"></stop><stop offset="0.333333" stop-color="#A7C1C2" stop-opacity="0.666667"></stop><stop offset="0.337255" stop-color="#A8C1C3" stop-opacity="0.662745"></stop><stop offset="0.341176" stop-color="#A9C2C4" stop-opacity="0.658823"></stop><stop offset="0.345098" stop-color="#A9C3C4" stop-opacity="0.654902"></stop><stop offset="0.34902" stop-color="#AAC3C5" stop-opacity="0.65098"></stop><stop offset="0.352941" stop-color="#ABC4C5" stop-opacity="0.647059"></stop><stop offset="0.356863" stop-color="#ACC5C6" stop-opacity="0.643137"></stop><stop offset="0.360784" stop-color="#ADC5C7" stop-opacity="0.639216"></stop><stop offset="0.364706" stop-color="#AEC6C7" stop-opacity="0.635294"></stop><stop offset="0.368627" stop-color="#AFC7C8" stop-opacity="0.631373"></stop><stop offset="0.372549" stop-color="#B0C7C9" stop-opacity="0.627451"></stop><stop offset="0.376471" stop-color="#B1C8C9" stop-opacity="0.623529"></stop><stop offset="0.380392" stop-color="#B2C9CA" stop-opacity="0.619608"></stop><stop offset="0.384314" stop-color="#B3C9CB" stop-opacity="0.615686"></stop><stop offset="0.388235" stop-color="#B4CACB" stop-opacity="0.611765"></stop><stop offset="0.392157" stop-color="#B5CBCC" stop-opacity="0.607843"></stop><stop offset="0.396078" stop-color="#B5CBCC" stop-opacity="0.603922"></stop><stop offset="0.4" stop-color="#B6CCCD" stop-opacity="0.6"></stop><stop offset="0.403922" stop-color="#B7CCCE" stop-opacity="0.596078"></stop><stop offset="0.407843" stop-color="#B8CDCE" stop-opacity="0.592157"></stop><stop offset="0.411765" stop-color="#B9CECF" stop-opacity="0.588235"></stop><stop offset="0.415686" stop-color="#BACECF" stop-opacity="0.584314"></stop><stop offset="0.419608" stop-color="#BBCFD0" stop-opacity="0.580392"></stop><stop offset="0.423529" stop-color="#BCD0D1" stop-opacity="0.576471"></stop><stop offset="0.427451" stop-color="#BCD0D1" stop-opacity="0.572549"></stop><stop offset="0.431373" stop-color="#BDD1D2" stop-opacity="0.568627"></stop><stop offset="0.435294" stop-color="#BED1D2" stop-opacity="0.564706"></stop><stop offset="0.439216" stop-color="#BFD2D3" stop-opacity="0.560784"></stop><stop offset="0.443137" stop-color="#C0D2D3" stop-opacity="0.556863"></stop><stop offset="0.447059" stop-color="#C1D3D4" stop-opacity="0.552941"></stop><stop offset="0.45098" stop-color="#C1D4D5" stop-opacity="0.54902"></stop><stop offset="0.454902" stop-color="#C2D4D5" stop-opacity="0.545098"></stop><stop offset="0.458824" stop-color="#C3D5D6" stop-opacity="0.541176"></stop><stop offset="0.462745" stop-color="#C4D5D6" stop-opacity="0.537255"></stop><stop offset="0.466667" stop-color="#C5D6D7" stop-opacity="0.533333"></stop><stop offset="0.470588" stop-color="#C5D6D7" stop-opacity="0.529412"></stop><stop offset="0.47451" stop-color="#C6D7D8" stop-opacity="0.52549"></stop><stop offset="0.478431" stop-color="#C7D8D8" stop-opacity="0.521569"></stop><stop offset="0.482353" stop-color="#C8D8D9" stop-opacity="0.517647"></stop><stop offset="0.486275" stop-color="#C9D9D9" stop-opacity="0.513726"></stop><stop offset="0.490196" stop-color="#C9D9DA" stop-opacity="0.509804"></stop><stop offset="0.494118" stop-color="#CADADB" stop-opacity="0.505882"></stop><stop offset="0.498039" stop-color="#CBDADB" stop-opacity="0.501961"></stop><stop offset="0.501961" stop-color="#CCDBDC" stop-opacity="0.498039"></stop><stop offset="0.505882" stop-color="#CCDBDC" stop-opacity="0.494118"></stop><stop offset="0.509804" stop-color="#CDDCDD" stop-opacity="0.490196"></stop><stop offset="0.513726" stop-color="#CEDCDD" stop-opacity="0.486274"></stop><stop offset="0.517647" stop-color="#CFDDDE" stop-opacity="0.482353"></stop><stop offset="0.521569" stop-color="#CFDDDE" stop-opacity="0.478431"></stop><stop offset="0.52549" stop-color="#D0DEDF" stop-opacity="0.47451"></stop><stop offset="0.529412" stop-color="#D1DEDF" stop-opacity="0.470588"></stop><stop offset="0.533333" stop-color="#D1DFE0" stop-opacity="0.466667"></stop><stop offset="0.537255" stop-color="#D2DFE0" stop-opacity="0.462745"></stop><stop offset="0.541176" stop-color="#D3E0E1" stop-opacity="0.458824"></stop><stop offset="0.545098" stop-color="#D4E0E1" stop-opacity="0.454902"></stop><stop offset="0.54902" stop-color="#D4E1E2" stop-opacity="0.45098"></stop><stop offset="0.552941" stop-color="#D5E1E2" stop-opacity="0.447059"></stop><stop offset="0.556863" stop-color="#D6E2E2" stop-opacity="0.443137"></stop><stop offset="0.560784" stop-color="#D6E2E3" stop-opacity="0.439216"></stop><stop offset="0.564706" stop-color="#D7E3E3" stop-opacity="0.435294"></stop><stop offset="0.568627" stop-color="#D8E3E4" stop-opacity="0.431373"></stop><stop offset="0.572549" stop-color="#D8E4E4" stop-opacity="0.427451"></stop><stop offset="0.576471" stop-color="#D9E4E5" stop-opacity="0.423529"></stop><stop offset="0.580392" stop-color="#DAE5E5" stop-opacity="0.419608"></stop><stop offset="0.584314" stop-color="#DAE5E6" stop-opacity="0.415686"></stop><stop offset="0.588235" stop-color="#DBE5E6" stop-opacity="0.411765"></stop><stop offset="0.592157" stop-color="#DCE6E6" stop-opacity="0.407843"></stop><stop offset="0.596078" stop-color="#DCE6E7" stop-opacity="0.403922"></stop><stop offset="0.6" stop-color="#DDE7E7" stop-opacity="0.4"></stop><stop offset="0.603922" stop-color="#DDE7E8" stop-opacity="0.396078"></stop><stop offset="0.607843" stop-color="#DEE8E8" stop-opacity="0.392157"></stop><stop offset="0.611765" stop-color="#DFE8E9" stop-opacity="0.388235"></stop><stop offset="0.615686" stop-color="#DFE9E9" stop-opacity="0.384314"></stop><stop offset="0.619608" stop-color="#E0E9E9" stop-opacity="0.380392"></stop><stop offset="0.623529" stop-color="#E0E9EA" stop-opacity="0.376471"></stop><stop offset="0.627451" stop-color="#E1EAEA" stop-opacity="0.372549"></stop><stop offset="0.631373" stop-color="#E2EAEB" stop-opacity="0.368627"></stop><stop offset="0.635294" stop-color="#E2EBEB" stop-opacity="0.364706"></stop><stop offset="0.639216" stop-color="#E3EBEB" stop-opacity="0.360784"></stop><stop offset="0.643137" stop-color="#E3EBEC" stop-opacity="0.356863"></stop><stop offset="0.647059" stop-color="#E4ECEC" stop-opacity="0.352941"></stop><stop offset="0.65098" stop-color="#E4ECED" stop-opacity="0.34902"></stop><stop offset="0.654902" stop-color="#E5EDED" stop-opacity="0.345098"></stop><stop offset="0.658824" stop-color="#E5EDED" stop-opacity="0.341176"></stop><stop offset="0.662745" stop-color="#E6EDEE" stop-opacity="0.337255"></stop><stop offset="0.666667" stop-color="#E7EEEE" stop-opacity="0.333333"></stop><stop offset="0.670588" stop-color="#E7EEEE" stop-opacity="0.329412"></stop><stop offset="0.67451" stop-color="#E8EEEF" stop-opacity="0.32549"></stop><stop offset="0.678431" stop-color="#E8EFEF" stop-opacity="0.321569"></stop><stop offset="0.682353" stop-color="#E9EFEF" stop-opacity="0.317647"></stop><stop offset="0.686275" stop-color="#E9EFF0" stop-opacity="0.313725"></stop><stop offset="0.690196" stop-color="#EAF0F0" stop-opacity="0.309804"></stop><stop offset="0.694118" stop-color="#EAF0F1" stop-opacity="0.305882"></stop><stop offset="0.698039" stop-color="#EBF1F1" stop-opacity="0.301961"></stop><stop offset="0.701961" stop-color="#EBF1F1" stop-opacity="0.298039"></stop><stop offset="0.705882" stop-color="#ECF1F1" stop-opacity="0.294118"></stop><stop offset="0.709804" stop-color="#ECF2F2" stop-opacity="0.290196"></stop><stop offset="0.713726" stop-color="#ECF2F2" stop-opacity="0.286274"></stop><stop offset="0.717647" stop-color="#EDF2F2" stop-opacity="0.282353"></stop><stop offset="0.721569" stop-color="#EDF2F3" stop-opacity="0.278431"></stop><stop offset="0.72549" stop-color="#EEF3F3" stop-opacity="0.27451"></stop><stop offset="0.729412" stop-color="#EEF3F3" stop-opacity="0.270588"></stop><stop offset="0.733333" stop-color="#EFF3F4" stop-opacity="0.266667"></stop><stop offset="0.737255" stop-color="#EFF4F4" stop-opacity="0.262745"></stop><stop offset="0.741176" stop-color="#F0F4F4" stop-opacity="0.258824"></stop><stop offset="0.745098" stop-color="#F0F4F5" stop-opacity="0.254902"></stop><stop offset="0.74902" stop-color="#F0F5F5" stop-opacity="0.25098"></stop><stop offset="0.752941" stop-color="#F1F5F5" stop-opacity="0.247059"></stop><stop offset="0.756863" stop-color="#F1F5F5" stop-opacity="0.243137"></stop><stop offset="0.760784" stop-color="#F2F5F6" stop-opacity="0.239216"></stop><stop offset="0.764706" stop-color="#F2F6F6" stop-opacity="0.235294"></stop><stop offset="0.768627" stop-color="#F2F6F6" stop-opacity="0.231373"></stop><stop offset="0.772549" stop-color="#F3F6F6" stop-opacity="0.227451"></stop><stop offset="0.776471" stop-color="#F3F7F7" stop-opacity="0.223529"></stop><stop offset="0.780392" stop-color="#F4F7F7" stop-opacity="0.219608"></stop><stop offset="0.784314" stop-color="#F4F7F7" stop-opacity="0.215686"></stop><stop offset="0.788235" stop-color="#F4F7F7" stop-opacity="0.211765"></stop><stop offset="0.792157" stop-color="#F5F8F8" stop-opacity="0.207843"></stop><stop offset="0.796078" stop-color="#F5F8F8" stop-opacity="0.203922"></stop><stop offset="0.8" stop-color="#F5F8F8" stop-opacity="0.2"></stop><stop offset="0.803922" stop-color="#F6F8F8" stop-opacity="0.196078"></stop><stop offset="0.807843" stop-color="#F6F9F9" stop-opacity="0.192157"></stop><stop offset="0.811765" stop-color="#F6F9F9" stop-opacity="0.188235"></stop><stop offset="0.815686" stop-color="#F7F9F9" stop-opacity="0.184314"></stop><stop offset="0.819608" stop-color="#F7F9F9" stop-opacity="0.180392"></stop><stop offset="0.823529" stop-color="#F7F9FA" stop-opacity="0.176471"></stop><stop offset="0.827451" stop-color="#F8FAFA" stop-opacity="0.172549"></stop><stop offset="0.831373" stop-color="#F8FAFA" stop-opacity="0.168627"></stop><stop offset="0.835294" stop-color="#F8FAFA" stop-opacity="0.164706"></stop><stop offset="0.839216" stop-color="#F8FAFA" stop-opacity="0.160784"></stop><stop offset="0.843137" stop-color="#F9FAFA" stop-opacity="0.156863"></stop><stop offset="0.847059" stop-color="#F9FBFB" stop-opacity="0.152941"></stop><stop offset="0.85098" stop-color="#F9FBFB" stop-opacity="0.14902"></stop><stop offset="0.854902" stop-color="#F9FBFB" stop-opacity="0.145098"></stop><stop offset="0.858824" stop-color="#FAFBFB" stop-opacity="0.141176"></stop><stop offset="0.862745" stop-color="#FAFBFB" stop-opacity="0.137255"></stop><stop offset="0.866667" stop-color="#FAFBFC" stop-opacity="0.133333"></stop><stop offset="0.870588" stop-color="#FAFCFC" stop-opacity="0.129412"></stop><stop offset="0.87451" stop-color="#FBFCFC" stop-opacity="0.12549"></stop><stop offset="0.878431" stop-color="#FBFCFC" stop-opacity="0.121569"></stop><stop offset="0.882353" stop-color="#FBFCFC" stop-opacity="0.117647"></stop><stop offset="0.886275" stop-color="#FBFCFC" stop-opacity="0.113725"></stop><stop offset="0.890196" stop-color="#FCFCFC" stop-opacity="0.109804"></stop><stop offset="0.894118" stop-color="#FCFDFD" stop-opacity="0.105882"></stop><stop offset="0.898039" stop-color="#FCFDFD" stop-opacity="0.101961"></stop><stop offset="0.901961" stop-color="#FCFDFD" stop-opacity="0.0980392"></stop><stop offset="0.905882" stop-color="#FCFDFD" stop-opacity="0.0941176"></stop><stop offset="0.909804" stop-color="#FCFDFD" stop-opacity="0.0901961"></stop><stop offset="0.913725" stop-color="#FDFDFD" stop-opacity="0.0862745"></stop><stop offset="0.917647" stop-color="#FDFDFD" stop-opacity="0.0823529"></stop><stop offset="0.921569" stop-color="#FDFDFD" stop-opacity="0.0784314"></stop><stop offset="0.92549" stop-color="#FDFDFE" stop-opacity="0.0745098"></stop><stop offset="0.929412" stop-color="#FDFEFE" stop-opacity="0.0705882"></stop><stop offset="0.933333" stop-color="#FDFEFE" stop-opacity="0.0666667"></stop><stop offset="0.937255" stop-color="#FDFEFE" stop-opacity="0.0627451"></stop><stop offset="0.941176" stop-color="#FEFEFE" stop-opacity="0.0588235"></stop><stop offset="0.945098" stop-color="#FEFEFE" stop-opacity="0.054902"></stop><stop offset="0.94902" stop-color="#FEFEFE" stop-opacity="0.0509804"></stop><stop offset="0.952941" stop-color="#FEFEFE" stop-opacity="0.0470588"></stop><stop offset="0.956863" stop-color="#FEFEFE" stop-opacity="0.0431373"></stop><stop offset="0.960784" stop-color="#FEFEFE" stop-opacity="0.0392157"></stop><stop offset="0.964706" stop-color="#FEFEFE" stop-opacity="0.0352941"></stop><stop offset="0.968627" stop-color="#FEFEFE" stop-opacity="0.0313725"></stop><stop offset="0.972549" stop-color="#FEFEFE" stop-opacity="0.027451"></stop><stop offset="0.976471" stop-color="#FEFEFE" stop-opacity="0.0235294"></stop><stop offset="0.980392" stop-color="#FEFEFE" stop-opacity="0.0196078"></stop><stop offset="0.984314" stop-color="#FEFEFE" stop-opacity="0.0156863"></stop><stop offset="0.988235" stop-color="#FEFEFE" stop-opacity="0.0117647"></stop><stop offset="0.992157" stop-color="#FEFEFE" stop-opacity="0.00784314"></stop><stop offset="0.996078" stop-color="#FEFEFE" stop-opacity="0.00392157"></stop><stop offset="1" stop-color="#FFFFFF" stop-opacity="0"></stop></linearGradient></defs><g transform="translate(-247 -334)"><g><path d="M741 336 910 596 741 856Z" fill="url(#fill0)" fill-rule="evenodd"></path><path d="M5.91172e-06-8.02083 449.543-8.0205 449.543 8.02116-5.91172e-06 8.02083ZM441.522-24.0622 489.647 0.000360892 441.522 24.0628Z" fill="#437B7E" fill-rule="nonzero" fill-opacity="1" transform="matrix(1 0 0 -1 1673 1176)"></path><text fill="#343333" fill-opacity="1" font-family="Arial,Arial_MSFontService,sans-serif" font-style="normal" font-variant="normal" font-weight="400" font-stretch="normal" font-size="55" text-anchor="start" direction="ltr" writing-mode="lr-tb" text-decoration="none" transform="matrix(1 0 0 1 492.791 495)">Core values</text><text fill="#343333" fill-opacity="1" font-family="Arial,Arial_MSFontService,sans-serif" font-style="normal" font-variant="normal" font-weight="400" font-stretch="normal" font-size="55" text-anchor="start" direction="ltr" writing-mode="lr-tb" text-decoration="none" transform="matrix(1 0 0 1 581.02 607)">Purpose</text><text fill="#343333" fill-opacity="1" font-family="Arial,Arial_MSFontService,sans-serif" font-style="normal" font-variant="normal" font-weight="400" font-stretch="normal" font-size="55" text-anchor="start" direction="ltr" writing-mode="lr-tb" text-decoration="none" transform="matrix(1 0 0 1 599.353 720)">Mission</text><path d="M1651.22 830.389 1652.15 815.874 1653.78 805.57 1655.83 795.687 1658.31 785.883 1661.23 776.166 1664.57 766.546 1668.33 757.03 1672.5 747.628 1677.08 738.348 1682.05 729.199 1693.11 711.436 1705.75 694.174 1719.87 677.599 1735.42 661.776 1752.34 646.769 1770.59 632.643 1790.13 619.463 1810.91 607.293 1832.87 596.197 1839.07 608.474 1817.85 619.161 1797.81 630.867 1779 643.523 1761.45 657.063 1745.22 671.419 1730.33 686.524 1716.84 702.309 1704.78 718.708 1694.13 735.775 1689.41 744.437 1685.07 753.211 1681.12 762.09 1677.56 771.064 1674.4 780.127 1671.64 789.27 1669.29 798.486 1667.36 807.766 1665.87 816.753 1664.94 831.268ZM1678.75 824.085 1657.86 865.203 1637.5 823.822Z" fill="#8AE3DA" fill-rule="nonzero" fill-opacity="1"></path><text fill="#343333" fill-opacity="1" font-family="Arial,Arial_MSFontService,sans-serif" font-style="normal" font-variant="normal" font-weight="400" font-stretch="normal" font-size="55" text-anchor="start" direction="ltr" writing-mode="lr-tb" text-decoration="none" transform="matrix(1 0 0 1 1042.01 1461)">Distinctive </text><text fill="#343333" fill-opacity="1" font-family="Arial,Arial_MSFontService,sans-serif" font-style="normal" font-variant="normal" font-weight="400" font-stretch="normal" font-size="55" text-anchor="start" direction="ltr" writing-mode="lr-tb" text-decoration="none" transform="matrix(1 0 0 1 993.307 1524)">competence</text><path d="M1437.54 1349.97 1434.97 1366.92 1431.73 1378.01 1427.9 1388.39 1423.4 1398.48 1418.28 1408.23 1412.58 1417.55 1406.31 1426.39 1399.5 1434.67 1392.2 1442.32 1384.42 1449.28 1376.18 1455.47 1367.52 1460.8 1359.84 1464.6 1352.13 1467.56 1344.41 1469.67 1336.71 1470.92 1329.07 1471.29 1321.56 1470.76 1314.21 1469.32 1307.11 1466.94 1311.58 1453.93 1316.97 1455.84 1322.61 1457.05 1328.48 1457.55 1334.57 1457.33 1340.84 1456.39 1347.26 1454.7 1353.78 1452.26 1360.34 1449.08 1367.95 1444.45 1375.27 1439.01 1382.27 1432.81 1388.89 1425.92 1395.1 1418.41 1400.86 1410.35 1406.12 1401.82 1410.85 1392.87 1415.01 1383.6 1418.56 1374.08 1421.38 1364.86 1423.95 1347.91ZM1409.85 1354.97 1432.15 1314.6 1451.07 1356.66Z" fill="#8AE3DA" fill-rule="nonzero" fill-opacity="1"></path><text fill="#343333" fill-opacity="1" font-family="Arial,Arial_MSFontService,sans-serif" font-style="normal" font-variant="normal" font-weight="400" font-stretch="normal" font-size="55" text-anchor="start" direction="ltr" writing-mode="lr-tb" text-decoration="none" transform="matrix(1 0 0 1 1497.59 1603)">Financial </text><text fill="#343333" fill-opacity="1" font-family="Arial,Arial_MSFontService,sans-serif" font-style="normal" font-variant="normal" font-weight="400" font-stretch="normal" font-size="55" text-anchor="start" direction="ltr" writing-mode="lr-tb" text-decoration="none" transform="matrix(1 0 0 1 1541.7 1666)">goals</text><text fill="#343333" fill-opacity="1" font-family="Arial,Arial_MSFontService,sans-serif" font-style="normal" font-variant="normal" font-weight="400" font-stretch="normal" font-size="64" text-anchor="start" direction="ltr" writing-mode="lr-tb" text-decoration="none" transform="matrix(1 0 0 1 2363.55 1051)">Strategic Themes</text><text fill="#343333" fill-opacity="1" font-family="Arial,Arial_MSFontService,sans-serif" font-style="normal" font-variant="normal" font-weight="400" font-stretch="normal" font-size="55" text-anchor="start" direction="ltr" writing-mode="lr-tb" text-decoration="none" transform="matrix(1 0 0 1 1870.75 1442)">Competitive </text><text fill="#343333" fill-opacity="1" font-family="Arial,Arial_MSFontService,sans-serif" font-style="normal" font-variant="normal" font-weight="400" font-stretch="normal" font-size="55" text-anchor="start" direction="ltr" writing-mode="lr-tb" text-decoration="none" transform="matrix(1 0 0 1 1870.75 1505)">environment</text><text fill="#343333" fill-opacity="1" font-family="Arial,Arial_MSFontService,sans-serif" font-style="normal" font-variant="normal" font-weight="400" font-stretch="normal" font-size="64" text-anchor="start" direction="ltr" writing-mode="lr-tb" text-decoration="none" transform="matrix(1 0 0 1 2368.02 1204)">Value Stream Budgets</text><path d="M5.91172e-06-8.02083 449.543-8.0205 449.543 8.02116-5.91172e-06 8.02083ZM441.522-24.0622 489.647 0.000360892 441.522 24.0628Z" fill="#437B7E" fill-rule="nonzero" fill-opacity="1" transform="matrix(1 0 0 -1 1675 1019)"></path><path d="M1204 1092C1204 984.857 1369.65 898 1574 898 1778.35 898 1944 984.857 1944 1092 1944 1199.14 1778.35 1286 1574 1286 1369.65 1286 1204 1199.14 1204 1092Z" fill="#437B7E" fill-rule="evenodd" fill-opacity="1"></path><text fill="#FFFFFF" fill-opacity="1" font-family="Arial,Arial_MSFontService,sans-serif" font-style="normal" font-variant="normal" font-weight="700" font-stretch="normal" font-size="83" text-anchor="start" direction="ltr" writing-mode="lr-tb" text-decoration="none" transform="matrix(1 0 0 1 1404.29 1015)">Portfolio</text><text fill="#FFFFFF" fill-opacity="1" font-family="Arial,Arial_MSFontService,sans-serif" font-style="normal" font-variant="normal" font-weight="700" font-stretch="normal" font-size="83" text-anchor="start" direction="ltr" writing-mode="lr-tb" text-decoration="none" transform="matrix(1 0 0 1 1408.88 1114)">Strategy </text><text fill="#FFFFFF" fill-opacity="1" font-family="Arial,Arial_MSFontService,sans-serif" font-style="normal" font-variant="normal" font-weight="700" font-stretch="normal" font-size="83" text-anchor="start" direction="ltr" writing-mode="lr-tb" text-decoration="none" transform="matrix(1 0 0 1 1335.54 1213)">Formulation</text><g><g><g><path d="M4469.61 2119.96C4469.61 2122.95 4467.2 2125.38 4464.2 2125.38 4461.19 2125.38 4458.78 2122.95 4458.78 2119.96 4458.78 2116.97 4461.19 2114.55 4464.2 2114.55 4467.2 2114.55 4469.61 2116.97 4469.61 2119.96Z" fill="#88A7AA" fill-rule="nonzero" fill-opacity="1" transform="matrix(1.01123 0 0 1 -2318.56 -1138.55)"></path><path d="M121.761 0.297559C122.961 0.297559 123.934 1.27008 123.934 2.46974L123.934 8.39118C123.934 9.59084 122.961 10.5634 121.761 10.5634L22.3765 10.5634C21.1768 10.5634 20.2043 9.59084 20.2043 8.39118L20.2043 2.46974C20.2043 1.27008 21.1768 0.297559 22.3765 0.297559Z" fill="#88A7AA" fill-rule="nonzero" fill-opacity="1" transform="matrix(1.01123 0 0 1 2190.34 976)"></path><path d="M4469.61 2146.03C4469.61 2149.02 4467.2 2151.44 4464.2 2151.44 4461.19 2151.44 4458.78 2149.02 4458.78 2146.03 4458.78 2143.04 4461.19 2140.61 4464.2 2140.61 4467.17 2140.59 4469.58 2142.99 4469.61 2145.97 4469.61 2145.99 4469.61 2146.01 4469.61 2146.03Z" fill="#88A7AA" fill-rule="nonzero" fill-opacity="1" transform="matrix(1.01123 0 0 1 -2318.56 -1138.55)"></path><path d="M121.761 26.334C122.961 26.334 123.934 27.3065 123.934 28.5062L123.934 34.4276C123.934 35.6273 122.961 36.5998 121.761 36.5998L22.3765 36.5998C21.1768 36.5998 20.2043 35.6273 20.2043 34.4276L20.2043 28.5062C20.2043 27.3065 21.1768 26.334 22.3765 26.334Z" fill="#88A7AA" fill-rule="nonzero" fill-opacity="1" transform="matrix(1.01123 0 0 1 2190.34 976)"></path><path d="M4469.61 2172.18C4469.64 2175.17 4467.23 2177.61 4464.23 2177.63 4461.22 2177.64 4458.81 2175.23 4458.78 2172.24 4458.75 2169.25 4461.16 2166.81 4464.17 2166.8 4464.17 2166.8 4464.2 2166.8 4464.2 2166.8 4467.17 2166.78 4469.58 2169.18 4469.61 2172.15 4469.61 2172.16 4469.61 2172.18 4469.61 2172.18Z" fill="#88A7AA" fill-rule="nonzero" fill-opacity="1" transform="matrix(1.01123 0 0 1 -2318.56 -1138.55)"></path><path d="M121.761 52.4002C122.961 52.4002 123.934 53.3727 123.934 54.5724L123.934 60.4938C123.934 61.6935 122.961 62.666 121.761 62.666L22.3765 62.666C21.1768 62.666 20.2043 61.6935 20.2043 60.4938L20.2043 54.5724C20.2043 53.3727 21.1768 52.4002 22.3765 52.4002Z" fill="#88A7AA" fill-rule="nonzero" fill-opacity="1" transform="matrix(1.01123 0 0 1 2190.34 976)"></path><path d="M4469.61 2198.13C4469.61 2201.12 4467.2 2203.55 4464.2 2203.55 4461.19 2203.55 4458.78 2201.12 4458.78 2198.13 4458.78 2195.14 4461.19 2192.72 4464.2 2192.72 4467.17 2192.7 4469.58 2195.1 4469.61 2198.07 4469.61 2198.09 4469.61 2198.11 4469.61 2198.13Z" fill="#88A7AA" fill-rule="nonzero" fill-opacity="1" transform="matrix(1.01123 0 0 1 -2318.56 -1138.55)"></path><path d="M121.761 78.4664C122.961 78.4664 123.934 79.4389 123.934 80.6386L123.934 86.56C123.934 87.7597 122.961 88.7322 121.761 88.7322L22.3765 88.7322C21.1768 88.7322 20.2043 87.7597 20.2043 86.56L20.2043 80.6386C20.2043 79.4389 21.1768 78.4664 22.3765 78.4664Z" fill="#88A7AA" fill-rule="nonzero" fill-opacity="1" transform="matrix(1.01123 0 0 1 2190.34 976)"></path></g></g></g><path d="M2312.29 1171.86 2257.4 1179.41 2220.75 1220.5C2245.03 1239.82 2280.6 1236.09 2300.21 1212.17 2308.37 1202.21 2312.8 1189.79 2312.75 1177 2312.56 1175.19 2312.44 1173.52 2312.29 1171.86Z" fill="#B3BE6E" fill-rule="evenodd" fill-opacity="1"></path><path d="M2208.25 1147.86C2194.2 1170.02 2197.87 1198.77 2217.06 1216.86L2252.75 1177.15Z" fill="#C8D47B" fill-rule="evenodd" fill-opacity="0.309804"></path><path d="M2258.75 1173.86 2311.75 1166.63C2306.89 1141.46 2284.92 1122.89 2258.75 1121.86Z" fill="#C8D47B" fill-rule="evenodd" fill-opacity="1"></path><path d="M2252.76 1121.86C2236.54 1122.77 2221.56 1130.7 2211.76 1143.53L2252.76 1170.86Z" fill="#C8D47B" fill-rule="evenodd" fill-opacity="0.65098"></path><path d="M2190 1177.5C2190 1141.33 2219.77 1112 2256.5 1112 2293.23 1112 2323 1141.33 2323 1177.5 2323 1213.67 2293.23 1243 2256.5 1243 2219.77 1243 2190 1213.67 2190 1177.5Z" stroke="#CACACA" stroke-width="5.72917" stroke-linecap="butt" stroke-linejoin="round" stroke-miterlimit="10" stroke-opacity="1" fill="none" fill-rule="evenodd"></path><g><g><g><path d="M95.175 62.0266C95.175 80.3339 80.3339 95.175 62.0266 95.175 43.7192 95.175 28.8781 80.3339 28.8781 62.0266 28.8781 43.7192 43.7192 28.8781 62.0266 28.8781 80.3339 28.8781 95.175 43.7192 95.175 62.0266Z" stroke="#CACACA" stroke-width="10.6758" stroke-linecap="butt" stroke-linejoin="miter" stroke-miterlimit="10" stroke-opacity="1" fill="none" fill-rule="nonzero" transform="matrix(1 0 0 1 1325 1551)"></path><path d="M118.715 62.0266C118.715 93.3348 93.3348 118.715 62.0266 118.715 30.7183 118.715 5.33791 93.3348 5.33791 62.0266 5.33791 30.7183 30.7183 5.33791 62.0266 5.33791 93.3348 5.33791 118.715 30.7183 118.715 62.0266Z" stroke="#CACACA" stroke-width="10.6758" stroke-linecap="butt" stroke-linejoin="miter" stroke-miterlimit="10" stroke-opacity="1" fill="none" fill-rule="nonzero" transform="matrix(1 0 0 1 1325 1551)"></path><path d="M74.2504 62.0266C74.2504 68.7776 68.7776 74.2504 62.0266 74.2504 55.2755 74.2504 49.8027 68.7776 49.8027 62.0266 49.8027 55.2755 55.2755 49.8027 62.0266 49.8027 68.7776 49.8027 74.2504 55.2755 74.2504 62.0266Z" fill="#CACACA" fill-rule="nonzero" fill-opacity="1" transform="matrix(1 0 0 1 1325 1551)"></path><path d="M95.4953 40.5681 95.8156 13.0245 59.0373 62.507 58.984 62.5604 59.0373 62.5604 58.984 62.5604 59.0373 62.507 118.662 54.0197 95.4953 40.5681Z" fill="#B0C345" fill-rule="nonzero" fill-opacity="1" transform="matrix(1 0 0 1 1325 1551)"></path></g></g></g><path d="M305.354-3.4183 318.149-1.53078 327.979 0.885297 337.342 3.64629 346.598 6.81028 355.739 10.371 364.757 14.3221 373.644 18.6574 382.395 23.3705 399.341 33.8339 415.772 45.7991 431.511 59.1525 446.5 73.8452 460.685 89.8291 474.01 107.056 486.421 125.48 497.862 145.054 508.278 165.731 517.614 187.466 504.978 192.886 495.995 171.91 485.987 151.985 475.012 133.155 463.128 115.461 450.393 98.9479 436.867 83.6565 422.605 69.629 407.667 56.9063 392.11 45.529 375.867 35.4725 367.609 31.0121 359.231 26.913 350.74 23.1801 342.142 19.8182 333.445 16.8323 324.654 14.2271 316.143 12.072 303.347 10.1845ZM309.162 24.5846 270.142 0 313.222-16.4651Z" fill="#8AE3DA" fill-rule="nonzero" fill-opacity="1" transform="matrix(-0.0810024 -0.996714 -0.996714 0.0810024 1534.24 1131.2)"></path><path d="M6.875-1.19889e-05 6.8753 172.577-6.8747 172.577-6.875 1.19889e-05ZM20.6253 165.702 0.000360892 206.952-20.6247 165.702Z" fill="#8AE3DA" fill-rule="nonzero" fill-opacity="1" transform="matrix(1 0 0 -1 1566 1521.95)"></path><path d="M88.0625-4.55654 96.239-6.24041C96.5918-6.31307 96.9499-6.35789 97.3097-6.37445L108.012-6.86683 119.124-6.66329 130.115-5.74261 140.915-4.11863 151.451-1.80368 161.652 1.1915 171.445 4.858 180.758 9.18893 189.515 14.1796 197.641 19.8274 205.054 26.1315 211.667 33.0909 215.427 37.8713 218.651 42.7184 221.42 47.7188 223.721 52.8571 225.54 58.1161 226.863 63.4763 227.678 68.9158 227.972 74.4105 214.238 75.0694 214.068 70.878 213.497 66.7023 212.523 62.5473 211.147 58.4206 209.365 54.3317 207.176 50.2927 204.577 46.3175 201.661 42.5218 196.11 36.5757 189.762 31.0959 182.679 26.1099 174.935 21.645 166.602 17.7267 157.758 14.3785 148.481 11.6217 138.852 9.47571 128.949 7.95787 118.853 7.08406 108.644 6.86864 97.9417 7.36102 99.0125 7.22698 90.8359 8.91084ZM100.706 20.7764 55.9217 9.76332 91.603-19.4566Z" fill="#8AE3DA" fill-rule="nonzero" fill-opacity="1" transform="matrix(0.385573 0.922677 0.922677 -0.385573 1675.94 1271.07)"></path><path d="M989 1092.12 1139.13 1092.13 1139.13 1105.88 989 1105.88ZM1132.25 1078.38 1173.5 1099 1132.25 1119.63Z" fill="#8AE3DA" fill-rule="nonzero" fill-opacity="1"></path><text fill="#343333" fill-opacity="1" font-family="Arial,Arial_MSFontService,sans-serif" font-style="normal" font-variant="normal" font-weight="400" font-stretch="normal" font-size="64" text-anchor="start" direction="ltr" writing-mode="lr-tb" text-decoration="none" transform="matrix(1 0 0 1 938.81 581)">Enterprise </text><text fill="#343333" fill-opacity="1" font-family="Arial,Arial_MSFontService,sans-serif" font-style="normal" font-variant="normal" font-weight="400" font-stretch="normal" font-size="64" text-anchor="start" direction="ltr" writing-mode="lr-tb" text-decoration="none" transform="matrix(1 0 0 1 1055.68 654)">Vision</text><text fill="#343333" fill-opacity="1" font-family="Arial,Arial_MSFontService,sans-serif" font-style="normal" font-variant="normal" font-weight="400" font-stretch="normal" font-size="64" text-anchor="start" direction="ltr" writing-mode="lr-tb" text-decoration="none" transform="matrix(1 0 0 1 401.625 1119)">Enterprise Strategy</text><text fill="#343333" fill-opacity="1" font-family="Arial,Arial_MSFontService,sans-serif" font-style="normal" font-variant="normal" font-weight="400" font-stretch="normal" font-size="64" text-anchor="start" direction="ltr" writing-mode="lr-tb" text-decoration="none" transform="matrix(1 0 0 1 1870.75 613)">Portfolio context</text><text fill="#666666" fill-opacity="1" font-family="Arial,Arial_MSFontService,sans-serif" font-style="normal" font-variant="normal" font-weight="400" font-stretch="normal" font-size="32" text-anchor="start" direction="ltr" writing-mode="lr-tb" text-decoration="none" transform="matrix(1 0 0 1 2718.25 1721)">© Scaled Agile, Inc.</text></g></g></svg> 